<svg xmlns="http://www.w3.org/2000/svg" viewBox="0 0 58 90" width="580" height="900"><rect width="58" height="90" fill="#f4f1ea"/><rect x="4" y="4" width="30" height="60" fill="#faf8f4" stroke="#2d5a3d" stroke-width="0.28" stroke-dasharray="1.2 0.7"/><rect x="34" y="4" width="20" height="60" fill="#faf8f4" stroke="#2d5a3d" stroke-width="0.28" stroke-dasharray="1.2 0.7"/><g transform="rotate(0 29 76)"><rect x="21" y="68" width="16" height="16" fill="rgba(200,160,60,.45)" stroke="#2d5a3d" stroke-width="0.12" rx="0.12"/></g><g transform="rotate(90 13.01 10)"><rect x="10.01" y="8.75" width="6" height="2.5" fill="#fff" stroke="#2d5a3d" stroke-width="0.12" rx="0.12"/></g><g transform="rotate(270 15.425 7.979999999999999)"><rect x="14.59" y="7.064999999999999" width="1.67" height="1.83" fill="#d9d3c7" stroke="#2d5a3d" stroke-width="0.12" rx="0.12"/></g><g transform="rotate(270 15.425 9.999999999999998)"><rect x="14.59" y="9.084999999999997" width="1.67" height="1.83" fill="#d9d3c7" stroke="#2d5a3d" stroke-width="0.12" rx="0.12"/></g><g transform="rotate(270 15.425 12.019999999999998)"><rect x="14.59" y="11.104999999999997" width="1.67" height="1.83" fill="#d9d3c7" stroke="#2d5a3d" stroke-width="0.12" rx="0.12"/></g><g transform="rotate(90 10.595 7.979999999999999)"><rect x="9.760000000000002" y="7.064999999999999" width="1.67" height="1.83" fill="#d9d3c7" stroke="#2d5a3d" stroke-width="0.12" rx="0.12"/></g><g transform="rotate(90 10.595 9.999999999999998)"><rect x="9.760000000000002" y="9.084999999999997" width="1.67" height="1.83" fill="#d9d3c7" stroke="#2d5a3d" stroke-width="0.12" rx="0.12"/></g><g transform="rotate(90 10.595 12.019999999999998)"><rect x="9.760000000000002" y="11.104999999999997" width="1.67" height="1.83" fill="#d9d3c7" stroke="#2d5a3d" stroke-width="0.12" rx="0.12"/></g><g transform="rotate(90 13.01 16)"><rect x="10.01" y="14.75" width="6" height="2.5" fill="#fff" stroke="#2d5a3d" stroke-width="0.12" rx="0.12"/></g><g transform="rotate(270 15.424999999999999 13.979999999999999)"><rect x="14.59" y="13.064999999999998" width="1.67" height="1.83" fill="#d9d3c7" stroke="#2d5a3d" stroke-width="0.12" rx="0.12"/></g><g transform="rotate(270 15.424999999999999 15.999999999999998)"><rect x="14.59" y="15.084999999999997" width="1.67" height="1.83" fill="#d9d3c7" stroke="#2d5a3d" stroke-width="0.12" rx="0.12"/></g><g transform="rotate(270 15.424999999999999 18.019999999999996)"><rect x="14.59" y="17.104999999999997" width="1.67" height="1.83" fill="#d9d3c7" stroke="#2d5a3d" stroke-width="0.12" rx="0.12"/></g><g transform="rotate(90 10.595 13.979999999999999)"><rect x="9.760000000000002" y="13.064999999999998" width="1.67" height="1.83" fill="#d9d3c7" stroke="#2d5a3d" stroke-width="0.12" rx="0.12"/></g><g transform="rotate(90 10.595 15.999999999999998)"><rect x="9.760000000000002" y="15.084999999999997" width="1.67" height="1.83" fill="#d9d3c7" stroke="#2d5a3d" stroke-width="0.12" rx="0.12"/></g><g transform="rotate(90 10.595 18.019999999999996)"><rect x="9.760000000000002" y="17.104999999999997" width="1.67" height="1.83" fill="#d9d3c7" stroke="#2d5a3d" stroke-width="0.12" rx="0.12"/></g><g transform="rotate(90 13.01 22)"><rect x="10.01" y="20.75" width="6" height="2.5" fill="#fff" stroke="#2d5a3d" stroke-width="0.12" rx="0.12"/></g><g transform="rotate(270 15.424999999999999 19.979999999999997)"><rect x="14.59" y="19.064999999999998" width="1.67" height="1.83" fill="#d9d3c7" stroke="#2d5a3d" stroke-width="0.12" rx="0.12"/></g><g transform="rotate(270 15.424999999999999 22)"><rect x="14.59" y="21.085" width="1.67" height="1.83" fill="#d9d3c7" stroke="#2d5a3d" stroke-width="0.12" rx="0.12"/></g><g transform="rotate(270 15.424999999999999 24.019999999999996)"><rect x="14.59" y="23.104999999999997" width="1.67" height="1.83" fill="#d9d3c7" stroke="#2d5a3d" stroke-width="0.12" rx="0.12"/></g><g transform="rotate(90 10.595 19.979999999999997)"><rect x="9.760000000000002" y="19.064999999999998" width="1.67" height="1.83" fill="#d9d3c7" stroke="#2d5a3d" stroke-width="0.12" rx="0.12"/></g><g transform="rotate(90 10.595 22)"><rect x="9.760000000000002" y="21.085" width="1.67" height="1.83" fill="#d9d3c7" stroke="#2d5a3d" stroke-width="0.12" rx="0.12"/></g><g transform="rotate(90 10.595 24.019999999999996)"><rect x="9.760000000000002" y="23.104999999999997" width="1.67" height="1.83" fill="#d9d3c7" stroke="#2d5a3d" stroke-width="0.12" rx="0.12"/></g><g transform="rotate(90 13.01 28)"><rect x="10.01" y="26.75" width="6" height="2.5" fill="#fff" stroke="#2d5a3d" stroke-width="0.12" rx="0.12"/></g><g transform="rotate(270 15.424999999999999 25.979999999999997)"><rect x="14.59" y="25.064999999999998" width="1.67" height="1.83" fill="#d9d3c7" stroke="#2d5a3d" stroke-width="0.12" rx="0.12"/></g><g transform="rotate(270 15.424999999999999 28)"><rect x="14.59" y="27.085" width="1.67" height="1.83" fill="#d9d3c7" stroke="#2d5a3d" stroke-width="0.12" rx="0.12"/></g><g transform="rotate(270 15.424999999999999 30.019999999999996)"><rect x="14.59" y="29.104999999999997" width="1.67" height="1.83" fill="#d9d3c7" stroke="#2d5a3d" stroke-width="0.12" rx="0.12"/></g><g transform="rotate(90 10.595 25.979999999999997)"><rect x="9.760000000000002" y="25.064999999999998" width="1.67" height="1.83" fill="#d9d3c7" stroke="#2d5a3d" stroke-width="0.12" rx="0.12"/></g><g transform="rotate(90 10.595 28)"><rect x="9.760000000000002" y="27.085" width="1.67" height="1.83" fill="#d9d3c7" stroke="#2d5a3d" stroke-width="0.12" rx="0.12"/></g><g transform="rotate(90 10.595 30.019999999999996)"><rect x="9.760000000000002" y="29.104999999999997" width="1.67" height="1.83" fill="#d9d3c7" stroke="#2d5a3d" stroke-width="0.12" rx="0.12"/></g><g transform="rotate(90 13.01 34)"><rect x="10.01" y="32.75" width="6" height="2.5" fill="#fff" stroke="#2d5a3d" stroke-width="0.12" rx="0.12"/></g><g transform="rotate(270 15.424999999999999 31.979999999999997)"><rect x="14.59" y="31.064999999999998" width="1.67" height="1.83" fill="#d9d3c7" stroke="#2d5a3d" stroke-width="0.12" rx="0.12"/></g><g transform="rotate(270 15.424999999999999 34)"><rect x="14.59" y="33.085" width="1.67" height="1.83" fill="#d9d3c7" stroke="#2d5a3d" stroke-width="0.12" rx="0.12"/></g><g transform="rotate(270 15.424999999999999 36.019999999999996)"><rect x="14.59" y="35.105" width="1.67" height="1.83" fill="#d9d3c7" stroke="#2d5a3d" stroke-width="0.12" rx="0.12"/></g><g transform="rotate(90 10.595 31.979999999999997)"><rect x="9.760000000000002" y="31.064999999999998" width="1.67" height="1.83" fill="#d9d3c7" stroke="#2d5a3d" stroke-width="0.12" rx="0.12"/></g><g transform="rotate(90 10.595 34)"><rect x="9.760000000000002" y="33.085" width="1.67" height="1.83" fill="#d9d3c7" stroke="#2d5a3d" stroke-width="0.12" rx="0.12"/></g><g transform="rotate(90 10.595 36.019999999999996)"><rect x="9.760000000000002" y="35.105" width="1.67" height="1.83" fill="#d9d3c7" stroke="#2d5a3d" stroke-width="0.12" rx="0.12"/></g><g transform="rotate(90 13.01 40)"><rect x="10.01" y="38.75" width="6" height="2.5" fill="#fff" stroke="#2d5a3d" stroke-width="0.12" rx="0.12"/></g><g transform="rotate(270 15.424999999999999 37.98)"><rect x="14.59" y="37.065" width="1.67" height="1.83" fill="#d9d3c7" stroke="#2d5a3d" stroke-width="0.12" rx="0.12"/></g><g transform="rotate(270 15.424999999999999 40)"><rect x="14.59" y="39.085" width="1.67" height="1.83" fill="#d9d3c7" stroke="#2d5a3d" stroke-width="0.12" rx="0.12"/></g><g transform="rotate(270 15.424999999999999 42.019999999999996)"><rect x="14.59" y="41.105" width="1.67" height="1.83" fill="#d9d3c7" stroke="#2d5a3d" stroke-width="0.12" rx="0.12"/></g><g transform="rotate(90 10.595 37.98)"><rect x="9.760000000000002" y="37.065" width="1.67" height="1.83" fill="#d9d3c7" stroke="#2d5a3d" stroke-width="0.12" rx="0.12"/></g><g transform="rotate(90 10.595 40)"><rect x="9.760000000000002" y="39.085" width="1.67" height="1.83" fill="#d9d3c7" stroke="#2d5a3d" stroke-width="0.12" rx="0.12"/></g><g transform="rotate(90 10.595 42.019999999999996)"><rect x="9.760000000000002" y="41.105" width="1.67" height="1.83" fill="#d9d3c7" stroke="#2d5a3d" stroke-width="0.12" rx="0.12"/></g><g transform="rotate(90 13.01 46)"><rect x="10.01" y="44.75" width="6" height="2.5" fill="#fff" stroke="#2d5a3d" stroke-width="0.12" rx="0.12"/></g><g transform="rotate(270 15.424999999999999 43.98)"><rect x="14.59" y="43.065" width="1.67" height="1.83" fill="#d9d3c7" stroke="#2d5a3d" stroke-width="0.12" rx="0.12"/></g><g transform="rotate(270 15.424999999999999 46)"><rect x="14.59" y="45.085" width="1.67" height="1.83" fill="#d9d3c7" stroke="#2d5a3d" stroke-width="0.12" rx="0.12"/></g><g transform="rotate(270 15.424999999999999 48.019999999999996)"><rect x="14.59" y="47.105" width="1.67" height="1.83" fill="#d9d3c7" stroke="#2d5a3d" stroke-width="0.12" rx="0.12"/></g><g transform="rotate(90 10.595 43.98)"><rect x="9.760000000000002" y="43.065" width="1.67" height="1.83" fill="#d9d3c7" stroke="#2d5a3d" stroke-width="0.12" rx="0.12"/></g><g transform="rotate(90 10.595 46)"><rect x="9.760000000000002" y="45.085" width="1.67" height="1.83" fill="#d9d3c7" stroke="#2d5a3d" stroke-width="0.12" rx="0.12"/></g><g transform="rotate(90 10.595 48.019999999999996)"><rect x="9.760000000000002" y="47.105" width="1.67" height="1.83" fill="#d9d3c7" stroke="#2d5a3d" stroke-width="0.12" rx="0.12"/></g><g transform="rotate(90 13.01 52)"><rect x="10.01" y="50.75" width="6" height="2.5" fill="#fff" stroke="#2d5a3d" stroke-width="0.12" rx="0.12"/></g><g transform="rotate(270 15.424999999999999 49.98)"><rect x="14.59" y="49.065" width="1.67" height="1.83" fill="#d9d3c7" stroke="#2d5a3d" stroke-width="0.12" rx="0.12"/></g><g transform="rotate(270 15.424999999999999 52)"><rect x="14.59" y="51.085" width="1.67" height="1.83" fill="#d9d3c7" stroke="#2d5a3d" stroke-width="0.12" rx="0.12"/></g><g transform="rotate(270 15.424999999999999 54.019999999999996)"><rect x="14.59" y="53.105" width="1.67" height="1.83" fill="#d9d3c7" stroke="#2d5a3d" stroke-width="0.12" rx="0.12"/></g><g transform="rotate(90 10.595 49.98)"><rect x="9.760000000000002" y="49.065" width="1.67" height="1.83" fill="#d9d3c7" stroke="#2d5a3d" stroke-width="0.12" rx="0.12"/></g><g transform="rotate(90 10.595 52)"><rect x="9.760000000000002" y="51.085" width="1.67" height="1.83" fill="#d9d3c7" stroke="#2d5a3d" stroke-width="0.12" rx="0.12"/></g><g transform="rotate(90 10.595 54.019999999999996)"><rect x="9.760000000000002" y="53.105" width="1.67" height="1.83" fill="#d9d3c7" stroke="#2d5a3d" stroke-width="0.12" rx="0.12"/></g><g transform="rotate(90 13.01 58)"><rect x="10.01" y="56.75" width="6" height="2.5" fill="#fff" stroke="#2d5a3d" stroke-width="0.12" rx="0.12"/></g><g transform="rotate(270 15.424999999999999 55.98)"><rect x="14.59" y="55.065" width="1.67" height="1.83" fill="#d9d3c7" stroke="#2d5a3d" stroke-width="0.12" rx="0.12"/></g><g transform="rotate(270 15.424999999999999 58)"><rect x="14.59" y="57.085" width="1.67" height="1.83" fill="#d9d3c7" stroke="#2d5a3d" stroke-width="0.12" rx="0.12"/></g><g transform="rotate(270 15.424999999999999 60.019999999999996)"><rect x="14.59" y="59.105" width="1.67" height="1.83" fill="#d9d3c7" stroke="#2d5a3d" stroke-width="0.12" rx="0.12"/></g><g transform="rotate(90 10.595 55.98)"><rect x="9.760000000000002" y="55.065" width="1.67" height="1.83" fill="#d9d3c7" stroke="#2d5a3d" stroke-width="0.12" rx="0.12"/></g><g transform="rotate(90 10.595 58)"><rect x="9.760000000000002" y="57.085" width="1.67" height="1.83" fill="#d9d3c7" stroke="#2d5a3d" stroke-width="0.12" rx="0.12"/></g><g transform="rotate(90 10.595 60.019999999999996)"><rect x="9.760000000000002" y="59.105" width="1.67" height="1.83" fill="#d9d3c7" stroke="#2d5a3d" stroke-width="0.12" rx="0.12"/></g><g transform="rotate(90 23.67 10)"><rect x="20.67" y="8.75" width="6" height="2.5" fill="#fff" stroke="#2d5a3d" stroke-width="0.12" rx="0.12"/></g><g transform="rotate(270 26.085 7.98)"><rect x="25.25" y="7.065" width="1.67" height="1.83" fill="#d9d3c7" stroke="#2d5a3d" stroke-width="0.12" rx="0.12"/></g><g transform="rotate(270 26.085 10)"><rect x="25.25" y="9.085" width="1.67" height="1.83" fill="#d9d3c7" stroke="#2d5a3d" stroke-width="0.12" rx="0.12"/></g><g transform="rotate(270 26.085 12.02)"><rect x="25.25" y="11.105" width="1.67" height="1.83" fill="#d9d3c7" stroke="#2d5a3d" stroke-width="0.12" rx="0.12"/></g><g transform="rotate(90 21.255000000000003 7.98)"><rect x="20.42" y="7.065" width="1.67" height="1.83" fill="#d9d3c7" stroke="#2d5a3d" stroke-width="0.12" rx="0.12"/></g><g transform="rotate(90 21.255000000000003 10)"><rect x="20.42" y="9.085" width="1.67" height="1.83" fill="#d9d3c7" stroke="#2d5a3d" stroke-width="0.12" rx="0.12"/></g><g transform="rotate(90 21.255000000000003 12.02)"><rect x="20.42" y="11.105" width="1.67" height="1.83" fill="#d9d3c7" stroke="#2d5a3d" stroke-width="0.12" rx="0.12"/></g><g transform="rotate(90 23.67 16)"><rect x="20.67" y="14.75" width="6" height="2.5" fill="#fff" stroke="#2d5a3d" stroke-width="0.12" rx="0.12"/></g><g transform="rotate(270 26.085 13.98)"><rect x="25.25" y="13.065000000000001" width="1.67" height="1.83" fill="#d9d3c7" stroke="#2d5a3d" stroke-width="0.12" rx="0.12"/></g><g transform="rotate(270 26.085 16)"><rect x="25.25" y="15.085" width="1.67" height="1.83" fill="#d9d3c7" stroke="#2d5a3d" stroke-width="0.12" rx="0.12"/></g><g transform="rotate(270 26.085 18.02)"><rect x="25.25" y="17.105" width="1.67" height="1.83" fill="#d9d3c7" stroke="#2d5a3d" stroke-width="0.12" rx="0.12"/></g><g transform="rotate(90 21.255000000000003 13.98)"><rect x="20.42" y="13.065000000000001" width="1.67" height="1.83" fill="#d9d3c7" stroke="#2d5a3d" stroke-width="0.12" rx="0.12"/></g><g transform="rotate(90 21.255000000000003 16)"><rect x="20.42" y="15.085" width="1.67" height="1.83" fill="#d9d3c7" stroke="#2d5a3d" stroke-width="0.12" rx="0.12"/></g><g transform="rotate(90 21.255000000000003 18.02)"><rect x="20.42" y="17.105" width="1.67" height="1.83" fill="#d9d3c7" stroke="#2d5a3d" stroke-width="0.12" rx="0.12"/></g><g transform="rotate(90 23.67 22)"><rect x="20.67" y="20.75" width="6" height="2.5" fill="#fff" stroke="#2d5a3d" stroke-width="0.12" rx="0.12"/></g><g transform="rotate(270 26.085 19.98)"><rect x="25.25" y="19.065" width="1.67" height="1.83" fill="#d9d3c7" stroke="#2d5a3d" stroke-width="0.12" rx="0.12"/></g><g transform="rotate(270 26.085 22)"><rect x="25.25" y="21.085" width="1.67" height="1.83" fill="#d9d3c7" stroke="#2d5a3d" stroke-width="0.12" rx="0.12"/></g><g transform="rotate(270 26.085 24.02)"><rect x="25.25" y="23.105" width="1.67" height="1.83" fill="#d9d3c7" stroke="#2d5a3d" stroke-width="0.12" rx="0.12"/></g><g transform="rotate(90 21.255000000000003 19.98)"><rect x="20.42" y="19.065" width="1.67" height="1.83" fill="#d9d3c7" stroke="#2d5a3d" stroke-width="0.12" rx="0.12"/></g><g transform="rotate(90 21.255000000000003 22)"><rect x="20.42" y="21.085" width="1.67" height="1.83" fill="#d9d3c7" stroke="#2d5a3d" stroke-width="0.12" rx="0.12"/></g><g transform="rotate(90 21.255000000000003 24.02)"><rect x="20.42" y="23.105" width="1.67" height="1.83" fill="#d9d3c7" stroke="#2d5a3d" stroke-width="0.12" rx="0.12"/></g><g transform="rotate(90 23.67 28)"><rect x="20.67" y="26.75" width="6" height="2.5" fill="#fff" stroke="#2d5a3d" stroke-width="0.12" rx="0.12"/></g><g transform="rotate(270 26.085 25.98)"><rect x="25.25" y="25.065" width="1.67" height="1.83" fill="#d9d3c7" stroke="#2d5a3d" stroke-width="0.12" rx="0.12"/></g><g transform="rotate(270 26.085 28)"><rect x="25.25" y="27.085" width="1.67" height="1.83" fill="#d9d3c7" stroke="#2d5a3d" stroke-width="0.12" rx="0.12"/></g><g transform="rotate(270 26.085 30.02)"><rect x="25.25" y="29.105" width="1.67" height="1.83" fill="#d9d3c7" stroke="#2d5a3d" stroke-width="0.12" rx="0.12"/></g><g transform="rotate(90 21.255000000000003 25.98)"><rect x="20.42" y="25.065" width="1.67" height="1.83" fill="#d9d3c7" stroke="#2d5a3d" stroke-width="0.12" rx="0.12"/></g><g transform="rotate(90 21.255000000000003 28)"><rect x="20.42" y="27.085" width="1.67" height="1.83" fill="#d9d3c7" stroke="#2d5a3d" stroke-width="0.12" rx="0.12"/></g><g transform="rotate(90 21.255000000000003 30.02)"><rect x="20.42" y="29.105" width="1.67" height="1.83" fill="#d9d3c7" stroke="#2d5a3d" stroke-width="0.12" rx="0.12"/></g><g transform="rotate(90 23.67 34)"><rect x="20.67" y="32.75" width="6" height="2.5" fill="#fff" stroke="#2d5a3d" stroke-width="0.12" rx="0.12"/></g><g transform="rotate(270 26.085 31.98)"><rect x="25.25" y="31.065" width="1.67" height="1.83" fill="#d9d3c7" stroke="#2d5a3d" stroke-width="0.12" rx="0.12"/></g><g transform="rotate(270 26.085 34)"><rect x="25.25" y="33.085" width="1.67" height="1.83" fill="#d9d3c7" stroke="#2d5a3d" stroke-width="0.12" rx="0.12"/></g><g transform="rotate(270 26.085 36.019999999999996)"><rect x="25.25" y="35.105" width="1.67" height="1.83" fill="#d9d3c7" stroke="#2d5a3d" stroke-width="0.12" rx="0.12"/></g><g transform="rotate(90 21.255000000000003 31.98)"><rect x="20.42" y="31.065" width="1.67" height="1.83" fill="#d9d3c7" stroke="#2d5a3d" stroke-width="0.12" rx="0.12"/></g><g transform="rotate(90 21.255000000000003 34)"><rect x="20.42" y="33.085" width="1.67" height="1.83" fill="#d9d3c7" stroke="#2d5a3d" stroke-width="0.12" rx="0.12"/></g><g transform="rotate(90 21.255000000000003 36.019999999999996)"><rect x="20.42" y="35.105" width="1.67" height="1.83" fill="#d9d3c7" stroke="#2d5a3d" stroke-width="0.12" rx="0.12"/></g><g transform="rotate(90 23.67 40)"><rect x="20.67" y="38.75" width="6" height="2.5" fill="#fff" stroke="#2d5a3d" stroke-width="0.12" rx="0.12"/></g><g transform="rotate(270 26.085 37.980000000000004)"><rect x="25.25" y="37.065000000000005" width="1.67" height="1.83" fill="#d9d3c7" stroke="#2d5a3d" stroke-width="0.12" rx="0.12"/></g><g transform="rotate(270 26.085 40)"><rect x="25.25" y="39.085" width="1.67" height="1.83" fill="#d9d3c7" stroke="#2d5a3d" stroke-width="0.12" rx="0.12"/></g><g transform="rotate(270 26.085 42.019999999999996)"><rect x="25.25" y="41.105" width="1.67" height="1.83" fill="#d9d3c7" stroke="#2d5a3d" stroke-width="0.12" rx="0.12"/></g><g transform="rotate(90 21.255000000000003 37.980000000000004)"><rect x="20.42" y="37.065000000000005" width="1.67" height="1.83" fill="#d9d3c7" stroke="#2d5a3d" stroke-width="0.12" rx="0.12"/></g><g transform="rotate(90 21.255000000000003 40)"><rect x="20.42" y="39.085" width="1.67" height="1.83" fill="#d9d3c7" stroke="#2d5a3d" stroke-width="0.12" rx="0.12"/></g><g transform="rotate(90 21.255000000000003 42.019999999999996)"><rect x="20.42" y="41.105" width="1.67" height="1.83" fill="#d9d3c7" stroke="#2d5a3d" stroke-width="0.12" rx="0.12"/></g><g transform="rotate(90 23.67 46)"><rect x="20.67" y="44.75" width="6" height="2.5" fill="#fff" stroke="#2d5a3d" stroke-width="0.12" rx="0.12"/></g><g transform="rotate(270 26.085 43.980000000000004)"><rect x="25.25" y="43.065000000000005" width="1.67" height="1.83" fill="#d9d3c7" stroke="#2d5a3d" stroke-width="0.12" rx="0.12"/></g><g transform="rotate(270 26.085 46)"><rect x="25.25" y="45.085" width="1.67" height="1.83" fill="#d9d3c7" stroke="#2d5a3d" stroke-width="0.12" rx="0.12"/></g><g transform="rotate(270 26.085 48.019999999999996)"><rect x="25.25" y="47.105" width="1.67" height="1.83" fill="#d9d3c7" stroke="#2d5a3d" stroke-width="0.12" rx="0.12"/></g><g transform="rotate(90 21.255000000000003 43.980000000000004)"><rect x="20.42" y="43.065000000000005" width="1.67" height="1.83" fill="#d9d3c7" stroke="#2d5a3d" stroke-width="0.12" rx="0.12"/></g><g transform="rotate(90 21.255000000000003 46)"><rect x="20.42" y="45.085" width="1.67" height="1.83" fill="#d9d3c7" stroke="#2d5a3d" stroke-width="0.12" rx="0.12"/></g><g transform="rotate(90 21.255000000000003 48.019999999999996)"><rect x="20.42" y="47.105" width="1.67" height="1.83" fill="#d9d3c7" stroke="#2d5a3d" stroke-width="0.12" rx="0.12"/></g><g transform="rotate(90 23.67 52)"><rect x="20.67" y="50.75" width="6" height="2.5" fill="#fff" stroke="#2d5a3d" stroke-width="0.12" rx="0.12"/></g><g transform="rotate(270 26.085 49.980000000000004)"><rect x="25.25" y="49.065000000000005" width="1.67" height="1.83" fill="#d9d3c7" stroke="#2d5a3d" stroke-width="0.12" rx="0.12"/></g><g transform="rotate(270 26.085 52)"><rect x="25.25" y="51.085" width="1.67" height="1.83" fill="#d9d3c7" stroke="#2d5a3d" stroke-width="0.12" rx="0.12"/></g><g transform="rotate(270 26.085 54.019999999999996)"><rect x="25.25" y="53.105" width="1.67" height="1.83" fill="#d9d3c7" stroke="#2d5a3d" stroke-width="0.12" rx="0.12"/></g><g transform="rotate(90 21.255000000000003 49.980000000000004)"><rect x="20.42" y="49.065000000000005" width="1.67" height="1.83" fill="#d9d3c7" stroke="#2d5a3d" stroke-width="0.12" rx="0.12"/></g><g transform="rotate(90 21.255000000000003 52)"><rect x="20.42" y="51.085" width="1.67" height="1.83" fill="#d9d3c7" stroke="#2d5a3d" stroke-width="0.12" rx="0.12"/></g><g transform="rotate(90 21.255000000000003 54.019999999999996)"><rect x="20.42" y="53.105" width="1.67" height="1.83" fill="#d9d3c7" stroke="#2d5a3d" stroke-width="0.12" rx="0.12"/></g><g transform="rotate(90 23.67 58)"><rect x="20.67" y="56.75" width="6" height="2.5" fill="#fff" stroke="#2d5a3d" stroke-width="0.12" rx="0.12"/></g><g transform="rotate(270 26.085 55.980000000000004)"><rect x="25.25" y="55.065000000000005" width="1.67" height="1.83" fill="#d9d3c7" stroke="#2d5a3d" stroke-width="0.12" rx="0.12"/></g><g transform="rotate(270 26.085 58)"><rect x="25.25" y="57.085" width="1.67" height="1.83" fill="#d9d3c7" stroke="#2d5a3d" stroke-width="0.12" rx="0.12"/></g><g transform="rotate(270 26.085 60.019999999999996)"><rect x="25.25" y="59.105" width="1.67" height="1.83" fill="#d9d3c7" stroke="#2d5a3d" stroke-width="0.12" rx="0.12"/></g><g transform="rotate(90 21.255000000000003 55.980000000000004)"><rect x="20.42" y="55.065000000000005" width="1.67" height="1.83" fill="#d9d3c7" stroke="#2d5a3d" stroke-width="0.12" rx="0.12"/></g><g transform="rotate(90 21.255000000000003 58)"><rect x="20.42" y="57.085" width="1.67" height="1.83" fill="#d9d3c7" stroke="#2d5a3d" stroke-width="0.12" rx="0.12"/></g><g transform="rotate(90 21.255000000000003 60.019999999999996)"><rect x="20.42" y="59.105" width="1.67" height="1.83" fill="#d9d3c7" stroke="#2d5a3d" stroke-width="0.12" rx="0.12"/></g><g transform="rotate(90 35.7 10)"><rect x="32.7" y="8.75" width="6" height="2.5" fill="#fff" stroke="#2d5a3d" stroke-width="0.12" rx="0.12"/></g><g transform="rotate(270 38.115 7.980000000000004)"><rect x="37.28" y="7.065000000000004" width="1.67" height="1.83" fill="#d9d3c7" stroke="#2d5a3d" stroke-width="0.12" rx="0.12"/></g><g transform="rotate(270 38.115 10.000000000000007)"><rect x="37.28" y="9.085000000000008" width="1.67" height="1.83" fill="#d9d3c7" stroke="#2d5a3d" stroke-width="0.12" rx="0.12"/></g><g transform="rotate(270 38.115 12.020000000000003)"><rect x="37.28" y="11.105000000000004" width="1.67" height="1.83" fill="#d9d3c7" stroke="#2d5a3d" stroke-width="0.12" rx="0.12"/></g><g transform="rotate(90 33.285000000000004 7.980000000000004)"><rect x="32.45" y="7.065000000000004" width="1.67" height="1.83" fill="#d9d3c7" stroke="#2d5a3d" stroke-width="0.12" rx="0.12"/></g><g transform="rotate(90 33.285000000000004 10.000000000000007)"><rect x="32.45" y="9.085000000000008" width="1.67" height="1.83" fill="#d9d3c7" stroke="#2d5a3d" stroke-width="0.12" rx="0.12"/></g><g transform="rotate(90 33.285000000000004 12.020000000000003)"><rect x="32.45" y="11.105000000000004" width="1.67" height="1.83" fill="#d9d3c7" stroke="#2d5a3d" stroke-width="0.12" rx="0.12"/></g><g transform="rotate(90 35.7 16)"><rect x="32.7" y="14.75" width="6" height="2.5" fill="#fff" stroke="#2d5a3d" stroke-width="0.12" rx="0.12"/></g><g transform="rotate(270 38.115 13.980000000000004)"><rect x="37.28" y="13.065000000000005" width="1.67" height="1.83" fill="#d9d3c7" stroke="#2d5a3d" stroke-width="0.12" rx="0.12"/></g><g transform="rotate(270 38.115 16.000000000000007)"><rect x="37.28" y="15.085000000000008" width="1.67" height="1.83" fill="#d9d3c7" stroke="#2d5a3d" stroke-width="0.12" rx="0.12"/></g><g transform="rotate(270 38.115 18.020000000000003)"><rect x="37.28" y="17.105000000000004" width="1.67" height="1.83" fill="#d9d3c7" stroke="#2d5a3d" stroke-width="0.12" rx="0.12"/></g><g transform="rotate(90 33.285000000000004 13.980000000000004)"><rect x="32.45" y="13.065000000000005" width="1.67" height="1.83" fill="#d9d3c7" stroke="#2d5a3d" stroke-width="0.12" rx="0.12"/></g><g transform="rotate(90 33.285000000000004 16.000000000000007)"><rect x="32.45" y="15.085000000000008" width="1.67" height="1.83" fill="#d9d3c7" stroke="#2d5a3d" stroke-width="0.12" rx="0.12"/></g><g transform="rotate(90 33.285000000000004 18.020000000000003)"><rect x="32.45" y="17.105000000000004" width="1.67" height="1.83" fill="#d9d3c7" stroke="#2d5a3d" stroke-width="0.12" rx="0.12"/></g><g transform="rotate(90 35.7 22)"><rect x="32.7" y="20.75" width="6" height="2.5" fill="#fff" stroke="#2d5a3d" stroke-width="0.12" rx="0.12"/></g><g transform="rotate(270 38.115 19.980000000000004)"><rect x="37.28" y="19.065000000000005" width="1.67" height="1.83" fill="#d9d3c7" stroke="#2d5a3d" stroke-width="0.12" rx="0.12"/></g><g transform="rotate(270 38.115 22.000000000000007)"><rect x="37.28" y="21.085000000000008" width="1.67" height="1.83" fill="#d9d3c7" stroke="#2d5a3d" stroke-width="0.12" rx="0.12"/></g><g transform="rotate(270 38.115 24.020000000000003)"><rect x="37.28" y="23.105000000000004" width="1.67" height="1.83" fill="#d9d3c7" stroke="#2d5a3d" stroke-width="0.12" rx="0.12"/></g><g transform="rotate(90 33.285000000000004 19.980000000000004)"><rect x="32.45" y="19.065000000000005" width="1.67" height="1.83" fill="#d9d3c7" stroke="#2d5a3d" stroke-width="0.12" rx="0.12"/></g><g transform="rotate(90 33.285000000000004 22.000000000000007)"><rect x="32.45" y="21.085000000000008" width="1.67" height="1.83" fill="#d9d3c7" stroke="#2d5a3d" stroke-width="0.12" rx="0.12"/></g><g transform="rotate(90 33.285000000000004 24.020000000000003)"><rect x="32.45" y="23.105000000000004" width="1.67" height="1.83" fill="#d9d3c7" stroke="#2d5a3d" stroke-width="0.12" rx="0.12"/></g><g transform="rotate(90 35.7 28)"><rect x="32.7" y="26.75" width="6" height="2.5" fill="#fff" stroke="#2d5a3d" stroke-width="0.12" rx="0.12"/></g><g transform="rotate(270 38.115 25.980000000000004)"><rect x="37.28" y="25.065000000000005" width="1.67" height="1.83" fill="#d9d3c7" stroke="#2d5a3d" stroke-width="0.12" rx="0.12"/></g><g transform="rotate(270 38.115 28.000000000000007)"><rect x="37.28" y="27.085000000000008" width="1.67" height="1.83" fill="#d9d3c7" stroke="#2d5a3d" stroke-width="0.12" rx="0.12"/></g><g transform="rotate(270 38.115 30.020000000000003)"><rect x="37.28" y="29.105000000000004" width="1.67" height="1.83" fill="#d9d3c7" stroke="#2d5a3d" stroke-width="0.12" rx="0.12"/></g><g transform="rotate(90 33.285000000000004 25.980000000000004)"><rect x="32.45" y="25.065000000000005" width="1.67" height="1.83" fill="#d9d3c7" stroke="#2d5a3d" stroke-width="0.12" rx="0.12"/></g><g transform="rotate(90 33.285000000000004 28.000000000000007)"><rect x="32.45" y="27.085000000000008" width="1.67" height="1.83" fill="#d9d3c7" stroke="#2d5a3d" stroke-width="0.12" rx="0.12"/></g><g transform="rotate(90 33.285000000000004 30.020000000000003)"><rect x="32.45" y="29.105000000000004" width="1.67" height="1.83" fill="#d9d3c7" stroke="#2d5a3d" stroke-width="0.12" rx="0.12"/></g><g transform="rotate(90 35.7 34)"><rect x="32.7" y="32.75" width="6" height="2.5" fill="#fff" stroke="#2d5a3d" stroke-width="0.12" rx="0.12"/></g><g transform="rotate(270 38.115 31.980000000000004)"><rect x="37.28" y="31.065000000000005" width="1.67" height="1.83" fill="#d9d3c7" stroke="#2d5a3d" stroke-width="0.12" rx="0.12"/></g><g transform="rotate(270 38.115 34.00000000000001)"><rect x="37.28" y="33.08500000000001" width="1.67" height="1.83" fill="#d9d3c7" stroke="#2d5a3d" stroke-width="0.12" rx="0.12"/></g><g transform="rotate(270 38.115 36.02)"><rect x="37.28" y="35.105000000000004" width="1.67" height="1.83" fill="#d9d3c7" stroke="#2d5a3d" stroke-width="0.12" rx="0.12"/></g><g transform="rotate(90 33.285000000000004 31.980000000000004)"><rect x="32.45" y="31.065000000000005" width="1.67" height="1.83" fill="#d9d3c7" stroke="#2d5a3d" stroke-width="0.12" rx="0.12"/></g><g transform="rotate(90 33.285000000000004 34.00000000000001)"><rect x="32.45" y="33.08500000000001" width="1.67" height="1.83" fill="#d9d3c7" stroke="#2d5a3d" stroke-width="0.12" rx="0.12"/></g><g transform="rotate(90 33.285000000000004 36.02)"><rect x="32.45" y="35.105000000000004" width="1.67" height="1.83" fill="#d9d3c7" stroke="#2d5a3d" stroke-width="0.12" rx="0.12"/></g><g transform="rotate(90 35.7 40)"><rect x="32.7" y="38.75" width="6" height="2.5" fill="#fff" stroke="#2d5a3d" stroke-width="0.12" rx="0.12"/></g><g transform="rotate(270 38.115 37.980000000000004)"><rect x="37.28" y="37.065000000000005" width="1.67" height="1.83" fill="#d9d3c7" stroke="#2d5a3d" stroke-width="0.12" rx="0.12"/></g><g transform="rotate(270 38.115 40.00000000000001)"><rect x="37.28" y="39.08500000000001" width="1.67" height="1.83" fill="#d9d3c7" stroke="#2d5a3d" stroke-width="0.12" rx="0.12"/></g><g transform="rotate(270 38.115 42.02)"><rect x="37.28" y="41.105000000000004" width="1.67" height="1.83" fill="#d9d3c7" stroke="#2d5a3d" stroke-width="0.12" rx="0.12"/></g><g transform="rotate(90 33.285000000000004 37.980000000000004)"><rect x="32.45" y="37.065000000000005" width="1.67" height="1.83" fill="#d9d3c7" stroke="#2d5a3d" stroke-width="0.12" rx="0.12"/></g><g transform="rotate(90 33.285000000000004 40.00000000000001)"><rect x="32.45" y="39.08500000000001" width="1.67" height="1.83" fill="#d9d3c7" stroke="#2d5a3d" stroke-width="0.12" rx="0.12"/></g><g transform="rotate(90 33.285000000000004 42.02)"><rect x="32.45" y="41.105000000000004" width="1.67" height="1.83" fill="#d9d3c7" stroke="#2d5a3d" stroke-width="0.12" rx="0.12"/></g><g transform="rotate(90 35.7 46)"><rect x="32.7" y="44.75" width="6" height="2.5" fill="#fff" stroke="#2d5a3d" stroke-width="0.12" rx="0.12"/></g><g transform="rotate(270 38.115 43.980000000000004)"><rect x="37.28" y="43.065000000000005" width="1.67" height="1.83" fill="#d9d3c7" stroke="#2d5a3d" stroke-width="0.12" rx="0.12"/></g><g transform="rotate(270 38.115 46.00000000000001)"><rect x="37.28" y="45.08500000000001" width="1.67" height="1.83" fill="#d9d3c7" stroke="#2d5a3d" stroke-width="0.12" rx="0.12"/></g><g transform="rotate(270 38.115 48.02)"><rect x="37.28" y="47.105000000000004" width="1.67" height="1.83" fill="#d9d3c7" stroke="#2d5a3d" stroke-width="0.12" rx="0.12"/></g><g transform="rotate(90 33.285000000000004 43.980000000000004)"><rect x="32.45" y="43.065000000000005" width="1.67" height="1.83" fill="#d9d3c7" stroke="#2d5a3d" stroke-width="0.12" rx="0.12"/></g><g transform="rotate(90 33.285000000000004 46.00000000000001)"><rect x="32.45" y="45.08500000000001" width="1.67" height="1.83" fill="#d9d3c7" stroke="#2d5a3d" stroke-width="0.12" rx="0.12"/></g><g transform="rotate(90 33.285000000000004 48.02)"><rect x="32.45" y="47.105000000000004" width="1.67" height="1.83" fill="#d9d3c7" stroke="#2d5a3d" stroke-width="0.12" rx="0.12"/></g><g transform="rotate(90 35.7 52)"><rect x="32.7" y="50.75" width="6" height="2.5" fill="#fff" stroke="#2d5a3d" stroke-width="0.12" rx="0.12"/></g><g transform="rotate(270 38.115 49.980000000000004)"><rect x="37.28" y="49.065000000000005" width="1.67" height="1.83" fill="#d9d3c7" stroke="#2d5a3d" stroke-width="0.12" rx="0.12"/></g><g transform="rotate(270 38.115 52.00000000000001)"><rect x="37.28" y="51.08500000000001" width="1.67" height="1.83" fill="#d9d3c7" stroke="#2d5a3d" stroke-width="0.12" rx="0.12"/></g><g transform="rotate(270 38.115 54.02)"><rect x="37.28" y="53.105000000000004" width="1.67" height="1.83" fill="#d9d3c7" stroke="#2d5a3d" stroke-width="0.12" rx="0.12"/></g><g transform="rotate(90 33.285000000000004 49.980000000000004)"><rect x="32.45" y="49.065000000000005" width="1.67" height="1.83" fill="#d9d3c7" stroke="#2d5a3d" stroke-width="0.12" rx="0.12"/></g><g transform="rotate(90 33.285000000000004 52.00000000000001)"><rect x="32.45" y="51.08500000000001" width="1.67" height="1.83" fill="#d9d3c7" stroke="#2d5a3d" stroke-width="0.12" rx="0.12"/></g><g transform="rotate(90 33.285000000000004 54.02)"><rect x="32.45" y="53.105000000000004" width="1.67" height="1.83" fill="#d9d3c7" stroke="#2d5a3d" stroke-width="0.12" rx="0.12"/></g><g transform="rotate(90 44.99 10)"><rect x="41.99" y="8.75" width="6" height="2.5" fill="#fff" stroke="#2d5a3d" stroke-width="0.12" rx="0.12"/></g><g transform="rotate(270 47.405 7.980000000000004)"><rect x="46.57" y="7.065000000000004" width="1.67" height="1.83" fill="#d9d3c7" stroke="#2d5a3d" stroke-width="0.12" rx="0.12"/></g><g transform="rotate(270 47.405 10.000000000000007)"><rect x="46.57" y="9.085000000000008" width="1.67" height="1.83" fill="#d9d3c7" stroke="#2d5a3d" stroke-width="0.12" rx="0.12"/></g><g transform="rotate(270 47.405 12.020000000000003)"><rect x="46.57" y="11.105000000000004" width="1.67" height="1.83" fill="#d9d3c7" stroke="#2d5a3d" stroke-width="0.12" rx="0.12"/></g><g transform="rotate(90 42.575 7.980000000000004)"><rect x="41.74" y="7.065000000000004" width="1.67" height="1.83" fill="#d9d3c7" stroke="#2d5a3d" stroke-width="0.12" rx="0.12"/></g><g transform="rotate(90 42.575 10.000000000000007)"><rect x="41.74" y="9.085000000000008" width="1.67" height="1.83" fill="#d9d3c7" stroke="#2d5a3d" stroke-width="0.12" rx="0.12"/></g><g transform="rotate(90 42.575 12.020000000000003)"><rect x="41.74" y="11.105000000000004" width="1.67" height="1.83" fill="#d9d3c7" stroke="#2d5a3d" stroke-width="0.12" rx="0.12"/></g><g transform="rotate(90 44.99 16)"><rect x="41.99" y="14.75" width="6" height="2.5" fill="#fff" stroke="#2d5a3d" stroke-width="0.12" rx="0.12"/></g><g transform="rotate(270 47.405 13.980000000000004)"><rect x="46.57" y="13.065000000000005" width="1.67" height="1.83" fill="#d9d3c7" stroke="#2d5a3d" stroke-width="0.12" rx="0.12"/></g><g transform="rotate(270 47.405 16.000000000000007)"><rect x="46.57" y="15.085000000000008" width="1.67" height="1.83" fill="#d9d3c7" stroke="#2d5a3d" stroke-width="0.12" rx="0.12"/></g><g transform="rotate(270 47.405 18.020000000000003)"><rect x="46.57" y="17.105000000000004" width="1.67" height="1.83" fill="#d9d3c7" stroke="#2d5a3d" stroke-width="0.12" rx="0.12"/></g><g transform="rotate(90 42.575 13.980000000000004)"><rect x="41.74" y="13.065000000000005" width="1.67" height="1.83" fill="#d9d3c7" stroke="#2d5a3d" stroke-width="0.12" rx="0.12"/></g><g transform="rotate(90 42.575 16.000000000000007)"><rect x="41.74" y="15.085000000000008" width="1.67" height="1.83" fill="#d9d3c7" stroke="#2d5a3d" stroke-width="0.12" rx="0.12"/></g><g transform="rotate(90 42.575 18.020000000000003)"><rect x="41.74" y="17.105000000000004" width="1.67" height="1.83" fill="#d9d3c7" stroke="#2d5a3d" stroke-width="0.12" rx="0.12"/></g><g transform="rotate(90 44.99 22)"><rect x="41.99" y="20.75" width="6" height="2.5" fill="#fff" stroke="#2d5a3d" stroke-width="0.12" rx="0.12"/></g><g transform="rotate(270 47.405 19.980000000000004)"><rect x="46.57" y="19.065000000000005" width="1.67" height="1.83" fill="#d9d3c7" stroke="#2d5a3d" stroke-width="0.12" rx="0.12"/></g><g transform="rotate(270 47.405 22.000000000000007)"><rect x="46.57" y="21.085000000000008" width="1.67" height="1.83" fill="#d9d3c7" stroke="#2d5a3d" stroke-width="0.12" rx="0.12"/></g><g transform="rotate(270 47.405 24.020000000000003)"><rect x="46.57" y="23.105000000000004" width="1.67" height="1.83" fill="#d9d3c7" stroke="#2d5a3d" stroke-width="0.12" rx="0.12"/></g><g transform="rotate(90 42.575 19.980000000000004)"><rect x="41.74" y="19.065000000000005" width="1.67" height="1.83" fill="#d9d3c7" stroke="#2d5a3d" stroke-width="0.12" rx="0.12"/></g><g transform="rotate(90 42.575 22.000000000000007)"><rect x="41.74" y="21.085000000000008" width="1.67" height="1.83" fill="#d9d3c7" stroke="#2d5a3d" stroke-width="0.12" rx="0.12"/></g><g transform="rotate(90 42.575 24.020000000000003)"><rect x="41.74" y="23.105000000000004" width="1.67" height="1.83" fill="#d9d3c7" stroke="#2d5a3d" stroke-width="0.12" rx="0.12"/></g><g transform="rotate(90 44.99 28)"><rect x="41.99" y="26.75" width="6" height="2.5" fill="#fff" stroke="#2d5a3d" stroke-width="0.12" rx="0.12"/></g><g transform="rotate(270 47.405 25.980000000000004)"><rect x="46.57" y="25.065000000000005" width="1.67" height="1.83" fill="#d9d3c7" stroke="#2d5a3d" stroke-width="0.12" rx="0.12"/></g><g transform="rotate(270 47.405 28.000000000000007)"><rect x="46.57" y="27.085000000000008" width="1.67" height="1.83" fill="#d9d3c7" stroke="#2d5a3d" stroke-width="0.12" rx="0.12"/></g><g transform="rotate(270 47.405 30.020000000000003)"><rect x="46.57" y="29.105000000000004" width="1.67" height="1.83" fill="#d9d3c7" stroke="#2d5a3d" stroke-width="0.12" rx="0.12"/></g><g transform="rotate(90 42.575 25.980000000000004)"><rect x="41.74" y="25.065000000000005" width="1.67" height="1.83" fill="#d9d3c7" stroke="#2d5a3d" stroke-width="0.12" rx="0.12"/></g><g transform="rotate(90 42.575 28.000000000000007)"><rect x="41.74" y="27.085000000000008" width="1.67" height="1.83" fill="#d9d3c7" stroke="#2d5a3d" stroke-width="0.12" rx="0.12"/></g><g transform="rotate(90 42.575 30.020000000000003)"><rect x="41.74" y="29.105000000000004" width="1.67" height="1.83" fill="#d9d3c7" stroke="#2d5a3d" stroke-width="0.12" rx="0.12"/></g><g transform="rotate(90 44.99 34)"><rect x="41.99" y="32.75" width="6" height="2.5" fill="#fff" stroke="#2d5a3d" stroke-width="0.12" rx="0.12"/></g><g transform="rotate(270 47.405 31.980000000000004)"><rect x="46.57" y="31.065000000000005" width="1.67" height="1.83" fill="#d9d3c7" stroke="#2d5a3d" stroke-width="0.12" rx="0.12"/></g><g transform="rotate(270 47.405 34.00000000000001)"><rect x="46.57" y="33.08500000000001" width="1.67" height="1.83" fill="#d9d3c7" stroke="#2d5a3d" stroke-width="0.12" rx="0.12"/></g><g transform="rotate(270 47.405 36.02)"><rect x="46.57" y="35.105000000000004" width="1.67" height="1.83" fill="#d9d3c7" stroke="#2d5a3d" stroke-width="0.12" rx="0.12"/></g><g transform="rotate(90 42.575 31.980000000000004)"><rect x="41.74" y="31.065000000000005" width="1.67" height="1.83" fill="#d9d3c7" stroke="#2d5a3d" stroke-width="0.12" rx="0.12"/></g><g transform="rotate(90 42.575 34.00000000000001)"><rect x="41.74" y="33.08500000000001" width="1.67" height="1.83" fill="#d9d3c7" stroke="#2d5a3d" stroke-width="0.12" rx="0.12"/></g><g transform="rotate(90 42.575 36.02)"><rect x="41.74" y="35.105000000000004" width="1.67" height="1.83" fill="#d9d3c7" stroke="#2d5a3d" stroke-width="0.12" rx="0.12"/></g><g transform="rotate(90 44.99 40)"><rect x="41.99" y="38.75" width="6" height="2.5" fill="#fff" stroke="#2d5a3d" stroke-width="0.12" rx="0.12"/></g><g transform="rotate(270 47.405 37.980000000000004)"><rect x="46.57" y="37.065000000000005" width="1.67" height="1.83" fill="#d9d3c7" stroke="#2d5a3d" stroke-width="0.12" rx="0.12"/></g><g transform="rotate(270 47.405 40.00000000000001)"><rect x="46.57" y="39.08500000000001" width="1.67" height="1.83" fill="#d9d3c7" stroke="#2d5a3d" stroke-width="0.12" rx="0.12"/></g><g transform="rotate(270 47.405 42.02)"><rect x="46.57" y="41.105000000000004" width="1.67" height="1.83" fill="#d9d3c7" stroke="#2d5a3d" stroke-width="0.12" rx="0.12"/></g><g transform="rotate(90 42.575 37.980000000000004)"><rect x="41.74" y="37.065000000000005" width="1.67" height="1.83" fill="#d9d3c7" stroke="#2d5a3d" stroke-width="0.12" rx="0.12"/></g><g transform="rotate(90 42.575 40.00000000000001)"><rect x="41.74" y="39.08500000000001" width="1.67" height="1.83" fill="#d9d3c7" stroke="#2d5a3d" stroke-width="0.12" rx="0.12"/></g><g transform="rotate(90 42.575 42.02)"><rect x="41.74" y="41.105000000000004" width="1.67" height="1.83" fill="#d9d3c7" stroke="#2d5a3d" stroke-width="0.12" rx="0.12"/></g><g transform="rotate(90 44.99 46)"><rect x="41.99" y="44.75" width="6" height="2.5" fill="#fff" stroke="#2d5a3d" stroke-width="0.12" rx="0.12"/></g><g transform="rotate(270 47.405 43.980000000000004)"><rect x="46.57" y="43.065000000000005" width="1.67" height="1.83" fill="#d9d3c7" stroke="#2d5a3d" stroke-width="0.12" rx="0.12"/></g><g transform="rotate(270 47.405 46.00000000000001)"><rect x="46.57" y="45.08500000000001" width="1.67" height="1.83" fill="#d9d3c7" stroke="#2d5a3d" stroke-width="0.12" rx="0.12"/></g><g transform="rotate(270 47.405 48.02)"><rect x="46.57" y="47.105000000000004" width="1.67" height="1.83" fill="#d9d3c7" stroke="#2d5a3d" stroke-width="0.12" rx="0.12"/></g><g transform="rotate(90 42.575 43.980000000000004)"><rect x="41.74" y="43.065000000000005" width="1.67" height="1.83" fill="#d9d3c7" stroke="#2d5a3d" stroke-width="0.12" rx="0.12"/></g><g transform="rotate(90 42.575 46.00000000000001)"><rect x="41.74" y="45.08500000000001" width="1.67" height="1.83" fill="#d9d3c7" stroke="#2d5a3d" stroke-width="0.12" rx="0.12"/></g><g transform="rotate(90 42.575 48.02)"><rect x="41.74" y="47.105000000000004" width="1.67" height="1.83" fill="#d9d3c7" stroke="#2d5a3d" stroke-width="0.12" rx="0.12"/></g><g transform="rotate(90 44.99 52)"><rect x="41.99" y="50.75" width="6" height="2.5" fill="#fff" stroke="#2d5a3d" stroke-width="0.12" rx="0.12"/></g><g transform="rotate(270 47.405 49.980000000000004)"><rect x="46.57" y="49.065000000000005" width="1.67" height="1.83" fill="#d9d3c7" stroke="#2d5a3d" stroke-width="0.12" rx="0.12"/></g><g transform="rotate(270 47.405 52.00000000000001)"><rect x="46.57" y="51.08500000000001" width="1.67" height="1.83" fill="#d9d3c7" stroke="#2d5a3d" stroke-width="0.12" rx="0.12"/></g><g transform="rotate(270 47.405 54.02)"><rect x="46.57" y="53.105000000000004" width="1.67" height="1.83" fill="#d9d3c7" stroke="#2d5a3d" stroke-width="0.12" rx="0.12"/></g><g transform="rotate(90 42.575 49.980000000000004)"><rect x="41.74" y="49.065000000000005" width="1.67" height="1.83" fill="#d9d3c7" stroke="#2d5a3d" stroke-width="0.12" rx="0.12"/></g><g transform="rotate(90 42.575 52.00000000000001)"><rect x="41.74" y="51.08500000000001" width="1.67" height="1.83" fill="#d9d3c7" stroke="#2d5a3d" stroke-width="0.12" rx="0.12"/></g><g transform="rotate(90 42.575 54.02)"><rect x="41.74" y="53.105000000000004" width="1.67" height="1.83" fill="#d9d3c7" stroke="#2d5a3d" stroke-width="0.12" rx="0.12"/></g></svg>