<svg xmlns="http://www.w3.org/2000/svg" viewBox="0 0 68 80" width="680" height="800"><rect width="68" height="80" fill="#f4f1ea"/><rect x="4" y="4" width="60" height="30" fill="#faf8f4" stroke="#2d5a3d" stroke-width="0.28" stroke-dasharray="1.2 0.7"/><rect x="4" y="34" width="60" height="20" fill="#faf8f4" stroke="#2d5a3d" stroke-width="0.28" stroke-dasharray="1.2 0.7"/><g transform="rotate(0 34 66)"><rect x="26" y="58" width="16" height="16" fill="rgba(200,160,60,.45)" stroke="#2d5a3d" stroke-width="0.12" rx="0.12"/></g><circle cx="10" cy="11" r="2.5" fill="#fff" stroke="#2d5a3d" stroke-width="0.14"/><g transform="rotate(0 10 7.335)"><rect x="9.165" y="6.42" width="1.67" height="1.83" fill="#d9d3c7" stroke="#2d5a3d" stroke-width="0.12" rx="0.12"/></g><g transform="rotate(45 12.591546353048697 8.408453646951303)"><rect x="11.756546353048698" y="7.493453646951303" width="1.67" height="1.83" fill="#d9d3c7" stroke="#2d5a3d" stroke-width="0.12" rx="0.12"/></g><g transform="rotate(90 13.665 11)"><rect x="12.829999999999998" y="10.085" width="1.67" height="1.83" fill="#d9d3c7" stroke="#2d5a3d" stroke-width="0.12" rx="0.12"/></g><g transform="rotate(135 12.591546353048697 13.591546353048697)"><rect x="11.756546353048698" y="12.676546353048696" width="1.67" height="1.83" fill="#d9d3c7" stroke="#2d5a3d" stroke-width="0.12" rx="0.12"/></g><g transform="rotate(180 10 14.665)"><rect x="9.165" y="13.75" width="1.67" height="1.83" fill="#d9d3c7" stroke="#2d5a3d" stroke-width="0.12" rx="0.12"/></g><g transform="rotate(225 7.408453646951303 13.591546353048697)"><rect x="6.573453646951303" y="12.676546353048696" width="1.67" height="1.83" fill="#d9d3c7" stroke="#2d5a3d" stroke-width="0.12" rx="0.12"/></g><g transform="rotate(270 6.335 11)"><rect x="5.5" y="10.085" width="1.67" height="1.83" fill="#d9d3c7" stroke="#2d5a3d" stroke-width="0.12" rx="0.12"/></g><g transform="rotate(315 7.408453646951303 8.408453646951303)"><rect x="6.573453646951303" y="7.493453646951303" width="1.67" height="1.83" fill="#d9d3c7" stroke="#2d5a3d" stroke-width="0.12" rx="0.12"/></g><circle cx="22" cy="11" r="2.5" fill="#fff" stroke="#2d5a3d" stroke-width="0.14"/><g transform="rotate(0 22 7.335)"><rect x="21.165" y="6.42" width="1.67" height="1.83" fill="#d9d3c7" stroke="#2d5a3d" stroke-width="0.12" rx="0.12"/></g><g transform="rotate(45 24.5915463530487 8.408453646951303)"><rect x="23.756546353048698" y="7.493453646951303" width="1.67" height="1.83" fill="#d9d3c7" stroke="#2d5a3d" stroke-width="0.12" rx="0.12"/></g><g transform="rotate(90 25.665 11)"><rect x="24.83" y="10.085" width="1.67" height="1.83" fill="#d9d3c7" stroke="#2d5a3d" stroke-width="0.12" rx="0.12"/></g><g transform="rotate(135 24.5915463530487 13.591546353048697)"><rect x="23.756546353048698" y="12.676546353048696" width="1.67" height="1.83" fill="#d9d3c7" stroke="#2d5a3d" stroke-width="0.12" rx="0.12"/></g><g transform="rotate(180 22 14.665)"><rect x="21.165" y="13.75" width="1.67" height="1.83" fill="#d9d3c7" stroke="#2d5a3d" stroke-width="0.12" rx="0.12"/></g><g transform="rotate(225 19.408453646951305 13.591546353048697)"><rect x="18.573453646951304" y="12.676546353048696" width="1.67" height="1.83" fill="#d9d3c7" stroke="#2d5a3d" stroke-width="0.12" rx="0.12"/></g><g transform="rotate(270 18.335 11)"><rect x="17.5" y="10.085" width="1.67" height="1.83" fill="#d9d3c7" stroke="#2d5a3d" stroke-width="0.12" rx="0.12"/></g><g transform="rotate(315 19.4084536469513 8.408453646951303)"><rect x="18.5734536469513" y="7.493453646951303" width="1.67" height="1.83" fill="#d9d3c7" stroke="#2d5a3d" stroke-width="0.12" rx="0.12"/></g><circle cx="34" cy="11" r="2.5" fill="#fff" stroke="#2d5a3d" stroke-width="0.14"/><g transform="rotate(0 34 7.335)"><rect x="33.165" y="6.42" width="1.67" height="1.83" fill="#d9d3c7" stroke="#2d5a3d" stroke-width="0.12" rx="0.12"/></g><g transform="rotate(45 36.5915463530487 8.408453646951303)"><rect x="35.7565463530487" y="7.493453646951303" width="1.67" height="1.83" fill="#d9d3c7" stroke="#2d5a3d" stroke-width="0.12" rx="0.12"/></g><g transform="rotate(90 37.665 11)"><rect x="36.83" y="10.085" width="1.67" height="1.83" fill="#d9d3c7" stroke="#2d5a3d" stroke-width="0.12" rx="0.12"/></g><g transform="rotate(135 36.5915463530487 13.591546353048697)"><rect x="35.7565463530487" y="12.676546353048696" width="1.67" height="1.83" fill="#d9d3c7" stroke="#2d5a3d" stroke-width="0.12" rx="0.12"/></g><g transform="rotate(180 34 14.665)"><rect x="33.165" y="13.75" width="1.67" height="1.83" fill="#d9d3c7" stroke="#2d5a3d" stroke-width="0.12" rx="0.12"/></g><g transform="rotate(225 31.408453646951305 13.591546353048697)"><rect x="30.573453646951304" y="12.676546353048696" width="1.67" height="1.83" fill="#d9d3c7" stroke="#2d5a3d" stroke-width="0.12" rx="0.12"/></g><g transform="rotate(270 30.335 11)"><rect x="29.5" y="10.085" width="1.67" height="1.83" fill="#d9d3c7" stroke="#2d5a3d" stroke-width="0.12" rx="0.12"/></g><g transform="rotate(315 31.4084536469513 8.408453646951303)"><rect x="30.5734536469513" y="7.493453646951303" width="1.67" height="1.83" fill="#d9d3c7" stroke="#2d5a3d" stroke-width="0.12" rx="0.12"/></g><circle cx="46" cy="11" r="2.5" fill="#fff" stroke="#2d5a3d" stroke-width="0.14"/><g transform="rotate(0 46 7.335)"><rect x="45.165" y="6.42" width="1.67" height="1.83" fill="#d9d3c7" stroke="#2d5a3d" stroke-width="0.12" rx="0.12"/></g><g transform="rotate(45 48.5915463530487 8.408453646951303)"><rect x="47.7565463530487" y="7.493453646951303" width="1.67" height="1.83" fill="#d9d3c7" stroke="#2d5a3d" stroke-width="0.12" rx="0.12"/></g><g transform="rotate(90 49.665 11)"><rect x="48.83" y="10.085" width="1.67" height="1.83" fill="#d9d3c7" stroke="#2d5a3d" stroke-width="0.12" rx="0.12"/></g><g transform="rotate(135 48.5915463530487 13.591546353048697)"><rect x="47.7565463530487" y="12.676546353048696" width="1.67" height="1.83" fill="#d9d3c7" stroke="#2d5a3d" stroke-width="0.12" rx="0.12"/></g><g transform="rotate(180 46 14.665)"><rect x="45.165" y="13.75" width="1.67" height="1.83" fill="#d9d3c7" stroke="#2d5a3d" stroke-width="0.12" rx="0.12"/></g><g transform="rotate(225 43.4084536469513 13.591546353048697)"><rect x="42.5734536469513" y="12.676546353048696" width="1.67" height="1.83" fill="#d9d3c7" stroke="#2d5a3d" stroke-width="0.12" rx="0.12"/></g><g transform="rotate(270 42.335 11)"><rect x="41.5" y="10.085" width="1.67" height="1.83" fill="#d9d3c7" stroke="#2d5a3d" stroke-width="0.12" rx="0.12"/></g><g transform="rotate(315 43.4084536469513 8.408453646951303)"><rect x="42.5734536469513" y="7.493453646951303" width="1.67" height="1.83" fill="#d9d3c7" stroke="#2d5a3d" stroke-width="0.12" rx="0.12"/></g><circle cx="58" cy="11" r="2.5" fill="#fff" stroke="#2d5a3d" stroke-width="0.14"/><g transform="rotate(0 58 7.335)"><rect x="57.165" y="6.42" width="1.67" height="1.83" fill="#d9d3c7" stroke="#2d5a3d" stroke-width="0.12" rx="0.12"/></g><g transform="rotate(45 60.5915463530487 8.408453646951303)"><rect x="59.7565463530487" y="7.493453646951303" width="1.67" height="1.83" fill="#d9d3c7" stroke="#2d5a3d" stroke-width="0.12" rx="0.12"/></g><g transform="rotate(90 61.665 11)"><rect x="60.83" y="10.085" width="1.67" height="1.83" fill="#d9d3c7" stroke="#2d5a3d" stroke-width="0.12" rx="0.12"/></g><g transform="rotate(135 60.5915463530487 13.591546353048697)"><rect x="59.7565463530487" y="12.676546353048696" width="1.67" height="1.83" fill="#d9d3c7" stroke="#2d5a3d" stroke-width="0.12" rx="0.12"/></g><g transform="rotate(180 58 14.665)"><rect x="57.165" y="13.75" width="1.67" height="1.83" fill="#d9d3c7" stroke="#2d5a3d" stroke-width="0.12" rx="0.12"/></g><g transform="rotate(225 55.4084536469513 13.591546353048697)"><rect x="54.5734536469513" y="12.676546353048696" width="1.67" height="1.83" fill="#d9d3c7" stroke="#2d5a3d" stroke-width="0.12" rx="0.12"/></g><g transform="rotate(270 54.335 11)"><rect x="53.5" y="10.085" width="1.67" height="1.83" fill="#d9d3c7" stroke="#2d5a3d" stroke-width="0.12" rx="0.12"/></g><g transform="rotate(315 55.4084536469513 8.408453646951303)"><rect x="54.5734536469513" y="7.493453646951303" width="1.67" height="1.83" fill="#d9d3c7" stroke="#2d5a3d" stroke-width="0.12" rx="0.12"/></g><circle cx="10" cy="23" r="2.5" fill="#fff" stroke="#2d5a3d" stroke-width="0.14"/><g transform="rotate(0 10 19.335)"><rect x="9.165" y="18.42" width="1.67" height="1.83" fill="#d9d3c7" stroke="#2d5a3d" stroke-width="0.12" rx="0.12"/></g><g transform="rotate(45 12.591546353048697 20.408453646951305)"><rect x="11.756546353048698" y="19.493453646951306" width="1.67" height="1.83" fill="#d9d3c7" stroke="#2d5a3d" stroke-width="0.12" rx="0.12"/></g><g transform="rotate(90 13.665 23)"><rect x="12.829999999999998" y="22.085" width="1.67" height="1.83" fill="#d9d3c7" stroke="#2d5a3d" stroke-width="0.12" rx="0.12"/></g><g transform="rotate(135 12.591546353048697 25.591546353048695)"><rect x="11.756546353048698" y="24.676546353048696" width="1.67" height="1.83" fill="#d9d3c7" stroke="#2d5a3d" stroke-width="0.12" rx="0.12"/></g><g transform="rotate(180 10 26.665)"><rect x="9.165" y="25.75" width="1.67" height="1.83" fill="#d9d3c7" stroke="#2d5a3d" stroke-width="0.12" rx="0.12"/></g><g transform="rotate(225 7.408453646951303 25.5915463530487)"><rect x="6.573453646951303" y="24.6765463530487" width="1.67" height="1.83" fill="#d9d3c7" stroke="#2d5a3d" stroke-width="0.12" rx="0.12"/></g><g transform="rotate(270 6.335 23)"><rect x="5.5" y="22.085" width="1.67" height="1.83" fill="#d9d3c7" stroke="#2d5a3d" stroke-width="0.12" rx="0.12"/></g><g transform="rotate(315 7.408453646951303 20.408453646951305)"><rect x="6.573453646951303" y="19.493453646951306" width="1.67" height="1.83" fill="#d9d3c7" stroke="#2d5a3d" stroke-width="0.12" rx="0.12"/></g><circle cx="22" cy="23" r="2.5" fill="#fff" stroke="#2d5a3d" stroke-width="0.14"/><g transform="rotate(0 22 19.335)"><rect x="21.165" y="18.42" width="1.67" height="1.83" fill="#d9d3c7" stroke="#2d5a3d" stroke-width="0.12" rx="0.12"/></g><g transform="rotate(45 24.5915463530487 20.408453646951305)"><rect x="23.756546353048698" y="19.493453646951306" width="1.67" height="1.83" fill="#d9d3c7" stroke="#2d5a3d" stroke-width="0.12" rx="0.12"/></g><g transform="rotate(90 25.665 23)"><rect x="24.83" y="22.085" width="1.67" height="1.83" fill="#d9d3c7" stroke="#2d5a3d" stroke-width="0.12" rx="0.12"/></g><g transform="rotate(135 24.5915463530487 25.591546353048695)"><rect x="23.756546353048698" y="24.676546353048696" width="1.67" height="1.83" fill="#d9d3c7" stroke="#2d5a3d" stroke-width="0.12" rx="0.12"/></g><g transform="rotate(180 22 26.665)"><rect x="21.165" y="25.75" width="1.67" height="1.83" fill="#d9d3c7" stroke="#2d5a3d" stroke-width="0.12" rx="0.12"/></g><g transform="rotate(225 19.408453646951305 25.5915463530487)"><rect x="18.573453646951304" y="24.6765463530487" width="1.67" height="1.83" fill="#d9d3c7" stroke="#2d5a3d" stroke-width="0.12" rx="0.12"/></g><g transform="rotate(270 18.335 23)"><rect x="17.5" y="22.085" width="1.67" height="1.83" fill="#d9d3c7" stroke="#2d5a3d" stroke-width="0.12" rx="0.12"/></g><g transform="rotate(315 19.4084536469513 20.408453646951305)"><rect x="18.5734536469513" y="19.493453646951306" width="1.67" height="1.83" fill="#d9d3c7" stroke="#2d5a3d" stroke-width="0.12" rx="0.12"/></g><circle cx="34" cy="23" r="2.5" fill="#fff" stroke="#2d5a3d" stroke-width="0.14"/><g transform="rotate(0 34 19.335)"><rect x="33.165" y="18.42" width="1.67" height="1.83" fill="#d9d3c7" stroke="#2d5a3d" stroke-width="0.12" rx="0.12"/></g><g transform="rotate(45 36.5915463530487 20.408453646951305)"><rect x="35.7565463530487" y="19.493453646951306" width="1.67" height="1.83" fill="#d9d3c7" stroke="#2d5a3d" stroke-width="0.12" rx="0.12"/></g><g transform="rotate(90 37.665 23)"><rect x="36.83" y="22.085" width="1.67" height="1.83" fill="#d9d3c7" stroke="#2d5a3d" stroke-width="0.12" rx="0.12"/></g><g transform="rotate(135 36.5915463530487 25.591546353048695)"><rect x="35.7565463530487" y="24.676546353048696" width="1.67" height="1.83" fill="#d9d3c7" stroke="#2d5a3d" stroke-width="0.12" rx="0.12"/></g><g transform="rotate(180 34 26.665)"><rect x="33.165" y="25.75" width="1.67" height="1.83" fill="#d9d3c7" stroke="#2d5a3d" stroke-width="0.12" rx="0.12"/></g><g transform="rotate(225 31.408453646951305 25.5915463530487)"><rect x="30.573453646951304" y="24.6765463530487" width="1.67" height="1.83" fill="#d9d3c7" stroke="#2d5a3d" stroke-width="0.12" rx="0.12"/></g><g transform="rotate(270 30.335 23)"><rect x="29.5" y="22.085" width="1.67" height="1.83" fill="#d9d3c7" stroke="#2d5a3d" stroke-width="0.12" rx="0.12"/></g><g transform="rotate(315 31.4084536469513 20.408453646951305)"><rect x="30.5734536469513" y="19.493453646951306" width="1.67" height="1.83" fill="#d9d3c7" stroke="#2d5a3d" stroke-width="0.12" rx="0.12"/></g><circle cx="46" cy="23" r="2.5" fill="#fff" stroke="#2d5a3d" stroke-width="0.14"/><g transform="rotate(0 46 19.335)"><rect x="45.165" y="18.42" width="1.67" height="1.83" fill="#d9d3c7" stroke="#2d5a3d" stroke-width="0.12" rx="0.12"/></g><g transform="rotate(45 48.5915463530487 20.408453646951305)"><rect x="47.7565463530487" y="19.493453646951306" width="1.67" height="1.83" fill="#d9d3c7" stroke="#2d5a3d" stroke-width="0.12" rx="0.12"/></g><g transform="rotate(90 49.665 23)"><rect x="48.83" y="22.085" width="1.67" height="1.83" fill="#d9d3c7" stroke="#2d5a3d" stroke-width="0.12" rx="0.12"/></g><g transform="rotate(135 48.5915463530487 25.591546353048695)"><rect x="47.7565463530487" y="24.676546353048696" width="1.67" height="1.83" fill="#d9d3c7" stroke="#2d5a3d" stroke-width="0.12" rx="0.12"/></g><g transform="rotate(180 46 26.665)"><rect x="45.165" y="25.75" width="1.67" height="1.83" fill="#d9d3c7" stroke="#2d5a3d" stroke-width="0.12" rx="0.12"/></g><g transform="rotate(225 43.4084536469513 25.5915463530487)"><rect x="42.5734536469513" y="24.6765463530487" width="1.67" height="1.83" fill="#d9d3c7" stroke="#2d5a3d" stroke-width="0.12" rx="0.12"/></g><g transform="rotate(270 42.335 23)"><rect x="41.5" y="22.085" width="1.67" height="1.83" fill="#d9d3c7" stroke="#2d5a3d" stroke-width="0.12" rx="0.12"/></g><g transform="rotate(315 43.4084536469513 20.408453646951305)"><rect x="42.5734536469513" y="19.493453646951306" width="1.67" height="1.83" fill="#d9d3c7" stroke="#2d5a3d" stroke-width="0.12" rx="0.12"/></g><circle cx="58" cy="23" r="2.5" fill="#fff" stroke="#2d5a3d" stroke-width="0.14"/><g transform="rotate(0 58 19.335)"><rect x="57.165" y="18.42" width="1.67" height="1.83" fill="#d9d3c7" stroke="#2d5a3d" stroke-width="0.12" rx="0.12"/></g><g transform="rotate(45 60.5915463530487 20.408453646951305)"><rect x="59.7565463530487" y="19.493453646951306" width="1.67" height="1.83" fill="#d9d3c7" stroke="#2d5a3d" stroke-width="0.12" rx="0.12"/></g><g transform="rotate(90 61.665 23)"><rect x="60.83" y="22.085" width="1.67" height="1.83" fill="#d9d3c7" stroke="#2d5a3d" stroke-width="0.12" rx="0.12"/></g><g transform="rotate(135 60.5915463530487 25.591546353048695)"><rect x="59.7565463530487" y="24.676546353048696" width="1.67" height="1.83" fill="#d9d3c7" stroke="#2d5a3d" stroke-width="0.12" rx="0.12"/></g><g transform="rotate(180 58 26.665)"><rect x="57.165" y="25.75" width="1.67" height="1.83" fill="#d9d3c7" stroke="#2d5a3d" stroke-width="0.12" rx="0.12"/></g><g transform="rotate(225 55.4084536469513 25.5915463530487)"><rect x="54.5734536469513" y="24.6765463530487" width="1.67" height="1.83" fill="#d9d3c7" stroke="#2d5a3d" stroke-width="0.12" rx="0.12"/></g><g transform="rotate(270 54.335 23)"><rect x="53.5" y="22.085" width="1.67" height="1.83" fill="#d9d3c7" stroke="#2d5a3d" stroke-width="0.12" rx="0.12"/></g><g transform="rotate(315 55.4084536469513 20.408453646951305)"><rect x="54.5734536469513" y="19.493453646951306" width="1.67" height="1.83" fill="#d9d3c7" stroke="#2d5a3d" stroke-width="0.12" rx="0.12"/></g><circle cx="10" cy="35" r="2.5" fill="#fff" stroke="#2d5a3d" stroke-width="0.14"/><g transform="rotate(0 10 31.335)"><rect x="9.165" y="30.42" width="1.67" height="1.83" fill="#d9d3c7" stroke="#2d5a3d" stroke-width="0.12" rx="0.12"/></g><g transform="rotate(45 12.591546353048697 32.4084536469513)"><rect x="11.756546353048698" y="31.493453646951302" width="1.67" height="1.83" fill="#d9d3c7" stroke="#2d5a3d" stroke-width="0.12" rx="0.12"/></g><g transform="rotate(90 13.665 35)"><rect x="12.829999999999998" y="34.085" width="1.67" height="1.83" fill="#d9d3c7" stroke="#2d5a3d" stroke-width="0.12" rx="0.12"/></g><g transform="rotate(135 12.591546353048697 37.5915463530487)"><rect x="11.756546353048698" y="36.6765463530487" width="1.67" height="1.83" fill="#d9d3c7" stroke="#2d5a3d" stroke-width="0.12" rx="0.12"/></g><g transform="rotate(180 10 38.665)"><rect x="9.165" y="37.75" width="1.67" height="1.83" fill="#d9d3c7" stroke="#2d5a3d" stroke-width="0.12" rx="0.12"/></g><g transform="rotate(225 7.408453646951303 37.5915463530487)"><rect x="6.573453646951303" y="36.6765463530487" width="1.67" height="1.83" fill="#d9d3c7" stroke="#2d5a3d" stroke-width="0.12" rx="0.12"/></g><g transform="rotate(270 6.335 35)"><rect x="5.5" y="34.085" width="1.67" height="1.83" fill="#d9d3c7" stroke="#2d5a3d" stroke-width="0.12" rx="0.12"/></g><g transform="rotate(315 7.408453646951303 32.4084536469513)"><rect x="6.573453646951303" y="31.493453646951302" width="1.67" height="1.83" fill="#d9d3c7" stroke="#2d5a3d" stroke-width="0.12" rx="0.12"/></g><circle cx="22" cy="35" r="2.5" fill="#fff" stroke="#2d5a3d" stroke-width="0.14"/><g transform="rotate(0 22 31.335)"><rect x="21.165" y="30.42" width="1.67" height="1.83" fill="#d9d3c7" stroke="#2d5a3d" stroke-width="0.12" rx="0.12"/></g><g transform="rotate(45 24.5915463530487 32.4084536469513)"><rect x="23.756546353048698" y="31.493453646951302" width="1.67" height="1.83" fill="#d9d3c7" stroke="#2d5a3d" stroke-width="0.12" rx="0.12"/></g><g transform="rotate(90 25.665 35)"><rect x="24.83" y="34.085" width="1.67" height="1.83" fill="#d9d3c7" stroke="#2d5a3d" stroke-width="0.12" rx="0.12"/></g><g transform="rotate(135 24.5915463530487 37.5915463530487)"><rect x="23.756546353048698" y="36.6765463530487" width="1.67" height="1.83" fill="#d9d3c7" stroke="#2d5a3d" stroke-width="0.12" rx="0.12"/></g><g transform="rotate(180 22 38.665)"><rect x="21.165" y="37.75" width="1.67" height="1.83" fill="#d9d3c7" stroke="#2d5a3d" stroke-width="0.12" rx="0.12"/></g><g transform="rotate(225 19.408453646951305 37.5915463530487)"><rect x="18.573453646951304" y="36.6765463530487" width="1.67" height="1.83" fill="#d9d3c7" stroke="#2d5a3d" stroke-width="0.12" rx="0.12"/></g><g transform="rotate(270 18.335 35)"><rect x="17.5" y="34.085" width="1.67" height="1.83" fill="#d9d3c7" stroke="#2d5a3d" stroke-width="0.12" rx="0.12"/></g><g transform="rotate(315 19.4084536469513 32.4084536469513)"><rect x="18.5734536469513" y="31.493453646951302" width="1.67" height="1.83" fill="#d9d3c7" stroke="#2d5a3d" stroke-width="0.12" rx="0.12"/></g><circle cx="34" cy="35" r="2.5" fill="#fff" stroke="#2d5a3d" stroke-width="0.14"/><g transform="rotate(0 34 31.335)"><rect x="33.165" y="30.42" width="1.67" height="1.83" fill="#d9d3c7" stroke="#2d5a3d" stroke-width="0.12" rx="0.12"/></g><g transform="rotate(45 36.5915463530487 32.4084536469513)"><rect x="35.7565463530487" y="31.493453646951302" width="1.67" height="1.83" fill="#d9d3c7" stroke="#2d5a3d" stroke-width="0.12" rx="0.12"/></g><g transform="rotate(90 37.665 35)"><rect x="36.83" y="34.085" width="1.67" height="1.83" fill="#d9d3c7" stroke="#2d5a3d" stroke-width="0.12" rx="0.12"/></g><g transform="rotate(135 36.5915463530487 37.5915463530487)"><rect x="35.7565463530487" y="36.6765463530487" width="1.67" height="1.83" fill="#d9d3c7" stroke="#2d5a3d" stroke-width="0.12" rx="0.12"/></g><g transform="rotate(180 34 38.665)"><rect x="33.165" y="37.75" width="1.67" height="1.83" fill="#d9d3c7" stroke="#2d5a3d" stroke-width="0.12" rx="0.12"/></g><g transform="rotate(225 31.408453646951305 37.5915463530487)"><rect x="30.573453646951304" y="36.6765463530487" width="1.67" height="1.83" fill="#d9d3c7" stroke="#2d5a3d" stroke-width="0.12" rx="0.12"/></g><g transform="rotate(270 30.335 35)"><rect x="29.5" y="34.085" width="1.67" height="1.83" fill="#d9d3c7" stroke="#2d5a3d" stroke-width="0.12" rx="0.12"/></g><g transform="rotate(315 31.4084536469513 32.4084536469513)"><rect x="30.5734536469513" y="31.493453646951302" width="1.67" height="1.83" fill="#d9d3c7" stroke="#2d5a3d" stroke-width="0.12" rx="0.12"/></g><circle cx="46" cy="35" r="2.5" fill="#fff" stroke="#2d5a3d" stroke-width="0.14"/><g transform="rotate(0 46 31.335)"><rect x="45.165" y="30.42" width="1.67" height="1.83" fill="#d9d3c7" stroke="#2d5a3d" stroke-width="0.12" rx="0.12"/></g><g transform="rotate(45 48.5915463530487 32.4084536469513)"><rect x="47.7565463530487" y="31.493453646951302" width="1.67" height="1.83" fill="#d9d3c7" stroke="#2d5a3d" stroke-width="0.12" rx="0.12"/></g><g transform="rotate(90 49.665 35)"><rect x="48.83" y="34.085" width="1.67" height="1.83" fill="#d9d3c7" stroke="#2d5a3d" stroke-width="0.12" rx="0.12"/></g><g transform="rotate(135 48.5915463530487 37.5915463530487)"><rect x="47.7565463530487" y="36.6765463530487" width="1.67" height="1.83" fill="#d9d3c7" stroke="#2d5a3d" stroke-width="0.12" rx="0.12"/></g><g transform="rotate(180 46 38.665)"><rect x="45.165" y="37.75" width="1.67" height="1.83" fill="#d9d3c7" stroke="#2d5a3d" stroke-width="0.12" rx="0.12"/></g><g transform="rotate(225 43.4084536469513 37.5915463530487)"><rect x="42.5734536469513" y="36.6765463530487" width="1.67" height="1.83" fill="#d9d3c7" stroke="#2d5a3d" stroke-width="0.12" rx="0.12"/></g><g transform="rotate(270 42.335 35)"><rect x="41.5" y="34.085" width="1.67" height="1.83" fill="#d9d3c7" stroke="#2d5a3d" stroke-width="0.12" rx="0.12"/></g><g transform="rotate(315 43.4084536469513 32.4084536469513)"><rect x="42.5734536469513" y="31.493453646951302" width="1.67" height="1.83" fill="#d9d3c7" stroke="#2d5a3d" stroke-width="0.12" rx="0.12"/></g><circle cx="58" cy="35" r="2.5" fill="#fff" stroke="#2d5a3d" stroke-width="0.14"/><g transform="rotate(0 58 31.335)"><rect x="57.165" y="30.42" width="1.67" height="1.83" fill="#d9d3c7" stroke="#2d5a3d" stroke-width="0.12" rx="0.12"/></g><g transform="rotate(45 60.5915463530487 32.4084536469513)"><rect x="59.7565463530487" y="31.493453646951302" width="1.67" height="1.83" fill="#d9d3c7" stroke="#2d5a3d" stroke-width="0.12" rx="0.12"/></g><g transform="rotate(90 61.665 35)"><rect x="60.83" y="34.085" width="1.67" height="1.83" fill="#d9d3c7" stroke="#2d5a3d" stroke-width="0.12" rx="0.12"/></g><g transform="rotate(135 60.5915463530487 37.5915463530487)"><rect x="59.7565463530487" y="36.6765463530487" width="1.67" height="1.83" fill="#d9d3c7" stroke="#2d5a3d" stroke-width="0.12" rx="0.12"/></g><g transform="rotate(180 58 38.665)"><rect x="57.165" y="37.75" width="1.67" height="1.83" fill="#d9d3c7" stroke="#2d5a3d" stroke-width="0.12" rx="0.12"/></g><g transform="rotate(225 55.4084536469513 37.5915463530487)"><rect x="54.5734536469513" y="36.6765463530487" width="1.67" height="1.83" fill="#d9d3c7" stroke="#2d5a3d" stroke-width="0.12" rx="0.12"/></g><g transform="rotate(270 54.335 35)"><rect x="53.5" y="34.085" width="1.67" height="1.83" fill="#d9d3c7" stroke="#2d5a3d" stroke-width="0.12" rx="0.12"/></g><g transform="rotate(315 55.4084536469513 32.4084536469513)"><rect x="54.5734536469513" y="31.493453646951302" width="1.67" height="1.83" fill="#d9d3c7" stroke="#2d5a3d" stroke-width="0.12" rx="0.12"/></g><circle cx="16" cy="47" r="2.5" fill="#fff" stroke="#2d5a3d" stroke-width="0.14"/><g transform="rotate(0 16 43.335)"><rect x="15.165" y="42.42" width="1.67" height="1.83" fill="#d9d3c7" stroke="#2d5a3d" stroke-width="0.12" rx="0.12"/></g><g transform="rotate(45 18.5915463530487 44.4084536469513)"><rect x="17.756546353048698" y="43.4934536469513" width="1.67" height="1.83" fill="#d9d3c7" stroke="#2d5a3d" stroke-width="0.12" rx="0.12"/></g><g transform="rotate(90 19.665 47)"><rect x="18.83" y="46.085" width="1.67" height="1.83" fill="#d9d3c7" stroke="#2d5a3d" stroke-width="0.12" rx="0.12"/></g><g transform="rotate(135 18.5915463530487 49.5915463530487)"><rect x="17.756546353048698" y="48.6765463530487" width="1.67" height="1.83" fill="#d9d3c7" stroke="#2d5a3d" stroke-width="0.12" rx="0.12"/></g><g transform="rotate(180 16 50.665)"><rect x="15.165" y="49.75" width="1.67" height="1.83" fill="#d9d3c7" stroke="#2d5a3d" stroke-width="0.12" rx="0.12"/></g><g transform="rotate(225 13.408453646951303 49.5915463530487)"><rect x="12.573453646951304" y="48.6765463530487" width="1.67" height="1.83" fill="#d9d3c7" stroke="#2d5a3d" stroke-width="0.12" rx="0.12"/></g><g transform="rotate(270 12.335 47)"><rect x="11.5" y="46.085" width="1.67" height="1.83" fill="#d9d3c7" stroke="#2d5a3d" stroke-width="0.12" rx="0.12"/></g><g transform="rotate(315 13.408453646951303 44.4084536469513)"><rect x="12.573453646951304" y="43.4934536469513" width="1.67" height="1.83" fill="#d9d3c7" stroke="#2d5a3d" stroke-width="0.12" rx="0.12"/></g><circle cx="28" cy="47" r="2.5" fill="#fff" stroke="#2d5a3d" stroke-width="0.14"/><g transform="rotate(0 28 43.335)"><rect x="27.165" y="42.42" width="1.67" height="1.83" fill="#d9d3c7" stroke="#2d5a3d" stroke-width="0.12" rx="0.12"/></g><g transform="rotate(45 30.5915463530487 44.4084536469513)"><rect x="29.756546353048698" y="43.4934536469513" width="1.67" height="1.83" fill="#d9d3c7" stroke="#2d5a3d" stroke-width="0.12" rx="0.12"/></g><g transform="rotate(90 31.665 47)"><rect x="30.83" y="46.085" width="1.67" height="1.83" fill="#d9d3c7" stroke="#2d5a3d" stroke-width="0.12" rx="0.12"/></g><g transform="rotate(135 30.5915463530487 49.5915463530487)"><rect x="29.756546353048698" y="48.6765463530487" width="1.67" height="1.83" fill="#d9d3c7" stroke="#2d5a3d" stroke-width="0.12" rx="0.12"/></g><g transform="rotate(180 28 50.665)"><rect x="27.165" y="49.75" width="1.67" height="1.83" fill="#d9d3c7" stroke="#2d5a3d" stroke-width="0.12" rx="0.12"/></g><g transform="rotate(225 25.408453646951305 49.5915463530487)"><rect x="24.573453646951304" y="48.6765463530487" width="1.67" height="1.83" fill="#d9d3c7" stroke="#2d5a3d" stroke-width="0.12" rx="0.12"/></g><g transform="rotate(270 24.335 47)"><rect x="23.5" y="46.085" width="1.67" height="1.83" fill="#d9d3c7" stroke="#2d5a3d" stroke-width="0.12" rx="0.12"/></g><g transform="rotate(315 25.4084536469513 44.4084536469513)"><rect x="24.5734536469513" y="43.4934536469513" width="1.67" height="1.83" fill="#d9d3c7" stroke="#2d5a3d" stroke-width="0.12" rx="0.12"/></g><circle cx="40" cy="47" r="2.5" fill="#fff" stroke="#2d5a3d" stroke-width="0.14"/><g transform="rotate(0 40 43.335)"><rect x="39.165" y="42.42" width="1.67" height="1.83" fill="#d9d3c7" stroke="#2d5a3d" stroke-width="0.12" rx="0.12"/></g><g transform="rotate(45 42.5915463530487 44.4084536469513)"><rect x="41.7565463530487" y="43.4934536469513" width="1.67" height="1.83" fill="#d9d3c7" stroke="#2d5a3d" stroke-width="0.12" rx="0.12"/></g><g transform="rotate(90 43.665 47)"><rect x="42.83" y="46.085" width="1.67" height="1.83" fill="#d9d3c7" stroke="#2d5a3d" stroke-width="0.12" rx="0.12"/></g><g transform="rotate(135 42.5915463530487 49.5915463530487)"><rect x="41.7565463530487" y="48.6765463530487" width="1.67" height="1.83" fill="#d9d3c7" stroke="#2d5a3d" stroke-width="0.12" rx="0.12"/></g><g transform="rotate(180 40 50.665)"><rect x="39.165" y="49.75" width="1.67" height="1.83" fill="#d9d3c7" stroke="#2d5a3d" stroke-width="0.12" rx="0.12"/></g><g transform="rotate(225 37.4084536469513 49.5915463530487)"><rect x="36.5734536469513" y="48.6765463530487" width="1.67" height="1.83" fill="#d9d3c7" stroke="#2d5a3d" stroke-width="0.12" rx="0.12"/></g><g transform="rotate(270 36.335 47)"><rect x="35.5" y="46.085" width="1.67" height="1.83" fill="#d9d3c7" stroke="#2d5a3d" stroke-width="0.12" rx="0.12"/></g><g transform="rotate(315 37.4084536469513 44.4084536469513)"><rect x="36.5734536469513" y="43.4934536469513" width="1.67" height="1.83" fill="#d9d3c7" stroke="#2d5a3d" stroke-width="0.12" rx="0.12"/></g><circle cx="52" cy="47" r="2.5" fill="#fff" stroke="#2d5a3d" stroke-width="0.14"/><g transform="rotate(0 52 43.335)"><rect x="51.165" y="42.42" width="1.67" height="1.83" fill="#d9d3c7" stroke="#2d5a3d" stroke-width="0.12" rx="0.12"/></g><g transform="rotate(45 54.5915463530487 44.4084536469513)"><rect x="53.7565463530487" y="43.4934536469513" width="1.67" height="1.83" fill="#d9d3c7" stroke="#2d5a3d" stroke-width="0.12" rx="0.12"/></g><g transform="rotate(90 55.665 47)"><rect x="54.83" y="46.085" width="1.67" height="1.83" fill="#d9d3c7" stroke="#2d5a3d" stroke-width="0.12" rx="0.12"/></g><g transform="rotate(135 54.5915463530487 49.5915463530487)"><rect x="53.7565463530487" y="48.6765463530487" width="1.67" height="1.83" fill="#d9d3c7" stroke="#2d5a3d" stroke-width="0.12" rx="0.12"/></g><g transform="rotate(180 52 50.665)"><rect x="51.165" y="49.75" width="1.67" height="1.83" fill="#d9d3c7" stroke="#2d5a3d" stroke-width="0.12" rx="0.12"/></g><g transform="rotate(225 49.4084536469513 49.5915463530487)"><rect x="48.5734536469513" y="48.6765463530487" width="1.67" height="1.83" fill="#d9d3c7" stroke="#2d5a3d" stroke-width="0.12" rx="0.12"/></g><g transform="rotate(270 48.335 47)"><rect x="47.5" y="46.085" width="1.67" height="1.83" fill="#d9d3c7" stroke="#2d5a3d" stroke-width="0.12" rx="0.12"/></g><g transform="rotate(315 49.4084536469513 44.4084536469513)"><rect x="48.5734536469513" y="43.4934536469513" width="1.67" height="1.83" fill="#d9d3c7" stroke="#2d5a3d" stroke-width="0.12" rx="0.12"/></g></svg>